<?xml version="1.0" encoding="UTF-8"?>
<svg id="_圖層_1" xmlns="http://www.w3.org/2000/svg" version="1.1" viewBox="0 0 59.6 59.8">
  <!-- Generator: Adobe Illustrator 29.3.1, SVG Export Plug-In . SVG Version: 2.1.0 Build 151)  -->
  <defs>
    <style>
      .st0 {
        fill: #fff;
      }

      .st1 {
        fill: #5274b4;
      }
    </style>
  </defs>
  <rect class="st1" x="0" y="0" width="59.6" height="59.6" rx="10.6" ry="10.6"/>
  <path class="st0" d="M42.3,17.7h-17.3v-4.6c0-.4-.5-.7-.9-.5l-10.6,6.1c-.4.2-.4.8,0,1l10.6,6.1c.4.2.9,0,.9-.5v-4.6h17.3c1,0,4.4.2,4.4,3.3v11.6c0,2.1-1.1,4.6-6.5,4.6H10.9c-.8,0-1.4.6-1.4,1.4v.2c0,.8.6,1.4,1.4,1.4h29.3c8.8,0,9.5-5.8,9.5-7.6v-11.6c0-4.4-3.7-6.3-7.4-6.3Z"/>
</svg>