<?xml version="1.0" encoding="UTF-8"?>
<svg id="_圖層_1" class="w-12 h-12" data-name="圖層 1" xmlns="http://www.w3.org/2000/svg" version="1.1" viewBox="0 0 44 45.4">
    <defs>
        <style>
        .cls-1 {
            fill: #fff;
            stroke-width: 0px;
        }
        </style>
    </defs>
    <g>
        <g>
            <path class="cls-1" d="M29.7,30.6c.3.6.2,1.2-.2,1.8-.4.6-.9.9-1.5.9h-4.1c-.8,0-1.4-.3-1.7-1l-2.1-4.7c-.2-.3-.4-.5-.8-.5h-7.9c-.7,0-1.2-.2-1.6-.8-.4-.6-.4-1.2-.2-1.8l3.7-10.2c.1-.3.4-.4.7-.3.3.1.4.3.3.7l-3.7,10.2c-.1.3,0,.5,0,.8.2.3.4.4.7.4h7.9c.8,0,1.4.3,1.7,1.1l2.2,4.7c.2.3.4.5.8.5h4.1c.3,0,.5-.2.7-.5.2-.3.2-.5,0-.8L17.4,5.5c-.1-.3-.4-.5-.8-.5h-3.1c-.4,0-.6.2-.8.5L1.6,30.9c-.1.3-.1.5,0,.8.2.3.4.4.7.4h3.6c.4,0,.6-.2.8-.5l1.8-4.4c.1-.3.4-.4.7-.3.3.1.4.3.3.7l-1.8,4.4c-.3.8-.9,1.2-1.7,1.2h-3.6c-.7,0-1.2-.3-1.6-.9s-.5-1.2-.2-1.8L11.9,5.1c.3-.8.9-1.2,1.7-1.2h3.1c.8,0,1.4.4,1.7,1.2l11.4,25.5ZM17.2,21.6c.3,0,.5-.1.7-.4.2-.3.2-.5,0-.8l-4-8.3c-.1-.3,0-.5.3-.7.3-.1.5,0,.7.3l4,8.3c.3.6.2,1.2-.2,1.8-.4.6-.9.9-1.6.9h-3.7c-.1,0-.3,0-.4-.2-.1-.1-.2-.2-.2-.4s0-.2,0-.3c0,0,.1-.1.2-.2,0,0,.2,0,.2,0h3.7Z"/>
            <g>
                <path class="cls-1" d="M39.4,3.2c-.6-.6-1.3-1-2.1-1.1-.8-.1-1.6,0-2.3.2-.7.3-1.3.8-1.7,1.4-.5.7-.7,1.4-.7,2.3,0,1.1.4,2,1.2,2.8.8.8,1.8,1.2,2.8,1.2.6,0,1,0,1.3-.1.3,0,.6-.3,1-.6.3-.2.3-.5,0-.7-.2-.3-.5-.3-.7,0-.2.2-.4.3-.6.4-.2,0-.5,0-1,0s-1.2-.2-1.7-.5c-.5-.4-.8-.8-1.1-1.3-.2-.5-.3-1.1-.2-1.7,0-.6.4-1.1.8-1.6.5-.5,1.1-.8,1.8-.8.7,0,1.3,0,1.8.4.5.3.9.8,1.2,1.4.3.6.3,1.3.2,2,0,.3,0,.6.4.6.5,0,.6-.2.6-.3s0-.2,0-.2c0,0,0-.1,0-.2,0-.1,0-.4,0-.6,0-1.1-.4-2.1-1.2-2.8Z"/>
                <path class="cls-1" d="M37.2,12.8h-1.3c-.8,0-1.5.3-2,.9-.6.6-.9,1.3-.9,2v14.7c0,.8.3,1.5.9,2,.6.6,1.3.9,2,.9h1.3c.8,0,1.5-.3,2-.9.6-.6.9-1.3.9-2v-10.8c0-.3-.2-.5-.5-.5-.3,0-.5.2-.5.5v10.8c0,.3,0,.7-.2.9-.2.3-.4.5-.7.7-.3.2-.6.3-.9.3h-1.3c-.5,0-1-.2-1.3-.6-.4-.4-.5-.8-.5-1.3v-14.7c0-.5.2-.9.5-1.3.4-.4.8-.5,1.3-.5h1.3c.5,0,.9.2,1.3.5s.5.8.5,1.3v1.5c0,.3.2.5.5.5s.5-.2.5-.5v-1.5c0-.8-.3-1.5-.9-2-.6-.6-1.3-.9-2-.9Z"/>
            </g>
        </g>
        <path class="cls-1" d="M43,5.5c-.3-.3-.6-.4-1-.3-.4-2.6-2.7-4.5-5.4-4.5s-5.1,1.9-5.4,4.5c-.4,0-.8,0-1,.3-.2.2-.4.5-.4.9v1.3c0,.7.6,1.2,1.3,1.2s.8-.4.8-.8v-2.2c0-2.5,2.1-4.5,4.7-4.5s4.7,2,4.7,4.5v2.2c0,.3.2.6.5.7,0,0,0,0-.1,0-.2,0-.4.2-.4.4,0,1.1-.9,2-2.1,2h-1.3c-.1-.3-.4-.4-.7-.4h-.9c-.5,0-.8.4-.8.8s.4.8.8.8h.9c.3,0,.6-.2.7-.4h1.3c1.6,0,2.8-1.2,2.8-2.7s0-.3-.2-.3c0,0,.2,0,.3,0,.7,0,1.3-.5,1.3-1.2v-1.3c0-.3-.1-.6-.4-.9Z"/>
    </g>
    <g>
        <path class="cls-1" d="M2.1,42.7c-.4-.2-.8-.3-1.1-.4.8-1.5,1.4-3.1,1.9-4.8l1.2.3c-.5,1.6-1.2,3.3-1.9,5ZM3.5,44.7c0-.4-.1-.8-.2-1.1.3,0,.8,0,1.3,0,.6,0,.9-.2.8-.8v-7.5h1.2v7.9c0,1-.4,1.5-1.5,1.5h-1.5ZM9.6,42.6c-.5-1.5-1.2-3-2-4.8l1.1-.4c.3.8.9,2.1,1.7,4,.2.3.3.6.3.7l-1.2.4Z"/>
        <path class="cls-1" d="M19.2,37.3h1v.3h1.7v.5h-1.7v.4c1,0,1.7,0,2.1,0,0,.3,0,.5,0,.6,0,0-.2,0-.4,0h0c0,0,0,.1,0,.3,0,.1,0,.2-.1.3h4v2.4h-3.1v.5h3.7v.9c0,.6-.3.9-1,.9h-1.3s0,0,0-.2c0-.2,0-.4-.1-.5h1c.3,0,.5,0,.4-.2v-.3h-2.7v1.6h-1v-1.6h-2.7v1.2h-1v-1.8h3.7v-.5h-3.1v-2.4h2.2c0-.2,0-.4.2-.6-.5,0-1.3,0-2.3.1-.5,0-.9,0-1.2,0v-.6c0,0,.4,0,.9,0,.4,0,.8,0,1,0v-.4h-1.7v-.5h1.7v-.3ZM19.2,35.2h1v.5h1.6v.6h-1.6v.4h1.8v.5h-4.8v-.5h2v-.4h-1.7v-.6h1.7v-.5ZM19.3,40.3v.4h5.2v-.4h-5.2ZM19.3,41.2v.4h5.2v-.4h-5.2ZM22.2,36.7v-.7h2.5v-.8h1v.8h1v.7h-1v1.4c0,.8-.3,1.1-1.1,1.2h-.6c-.4,0-.7,0-.9,0,0,0,0-.2-.1-.4,0-.2,0-.3,0-.4.2,0,.4,0,.7,0h.6c.4,0,.6-.2.6-.5v-1.2h-2.5ZM23.6,38.2c-.3-.3-.7-.6-1-.8l.5-.6c.5.4.9.6,1.1.8l-.6.6Z"/>
        <path class="cls-1" d="M33.9,36.9c0-.4-.1-.8-.2-1,2.9,0,5.6-.1,8.2-.3l.2,1c-1.1,0-2.3.1-3.4.2v1.6h3.4v1h-3.4v1.6h4.2v1h-4.2v1.3c0,1-.5,1.5-1.5,1.5h-1.8c0-.3-.1-.6-.2-1h1.5c.6,0,.9-.2.8-.8v-1h-4.4v-1h4.4v-1.6h-3.6v-1h3.6v-1.5c-1.2,0-2.4,0-3.6.1Z"/>
    </g>
</svg>